<svg width="24" height="20" viewBox="0 0 24 20" fill="none" xmlns="http://www.w3.org/2000/svg">
<path d="M18.5 2.875C18.7717 2.875 19.0324 2.98276 19.2246 3.1748C19.4168 3.36703 19.5254 3.62854 19.5254 3.90039V6.47461H22.0996C22.3715 6.47461 22.633 6.58317 22.8252 6.77539C23.0172 6.96759 23.125 7.22829 23.125 7.5C23.125 7.77171 23.0172 8.03241 22.8252 8.22461C22.633 8.41683 22.3715 8.52539 22.0996 8.52539H19.5254V11.0996C19.5254 11.3715 19.4168 11.633 19.2246 11.8252C19.0324 12.0172 18.7717 12.125 18.5 12.125C18.2283 12.125 17.9676 12.0172 17.7754 11.8252C17.5832 11.633 17.4746 11.3715 17.4746 11.0996V8.52539H14.9004C14.6285 8.52539 14.367 8.41683 14.1748 8.22461C13.9828 8.03241 13.875 7.77171 13.875 7.5C13.875 7.22829 13.9828 6.96759 14.1748 6.77539C14.367 6.58317 14.6285 6.47461 14.9004 6.47461H17.4746V3.90039C17.4746 3.62854 17.5832 3.36703 17.7754 3.1748C17.9676 2.98276 18.2283 2.875 18.5 2.875Z" fill="#466362" stroke="#466362" stroke-width="0.25"/>
<path d="M7.27246 11C9.44738 11 10.8946 11.9041 11.8623 13.207C12.847 14.5329 13.364 16.3212 13.5049 18.0908H1.04102C1.18188 16.3212 1.6989 14.5329 2.68359 13.207C3.65121 11.9043 5.09781 11.0001 7.27246 11Z" stroke="#466362" stroke-width="2"/>
<circle cx="7.09865" cy="4.37111" r="3.37111" stroke="#466362" stroke-width="2"/>
</svg>
