<svg width="20" height="15" viewBox="0 0 20 15" fill="none" xmlns="http://www.w3.org/2000/svg">
<mask id="path-1-inside-1_497_1105" fill="white">
<path d="M7.5 7.32546C8.49456 7.32546 9.44839 6.93957 10.1517 6.25267C10.8549 5.56578 11.25 4.63415 11.25 3.66273C11.25 2.69131 10.8549 1.75968 10.1517 1.07279C9.44839 0.385894 8.49456 0 7.5 0C6.50544 0 5.55161 0.385894 4.84835 1.07279C4.14509 1.75968 3.75 2.69131 3.75 3.66273C3.75 4.63415 4.14509 5.56578 4.84835 6.25267C5.55161 6.93957 6.50544 7.32546 7.5 7.32546ZM10 3.66273C10 4.31034 9.73661 4.93143 9.26777 5.38936C8.79893 5.84729 8.16304 6.10455 7.5 6.10455C6.83696 6.10455 6.20107 5.84729 5.73223 5.38936C5.26339 4.93143 5 4.31034 5 3.66273C5 3.01512 5.26339 2.39403 5.73223 1.9361C6.20107 1.47817 6.83696 1.22091 7.5 1.22091C8.16304 1.22091 8.79893 1.47817 9.26777 1.9361C9.73661 2.39403 10 3.01512 10 3.66273ZM15 13.43C15 14.6509 13.75 14.6509 13.75 14.6509H1.25C1.25 14.6509 0 14.6509 0 13.43C0 12.2091 1.25 8.54637 7.5 8.54637C13.75 8.54637 15 12.2091 15 13.43ZM13.75 13.4251C13.7487 13.1248 13.5575 12.2213 12.71 11.3935C11.895 10.5975 10.3612 9.76728 7.5 9.76728C4.63875 9.76728 3.105 10.5975 2.29 11.3935C1.4425 12.2213 1.2525 13.1248 1.25 13.4251H13.75Z"/>
</mask>
<path d="M7.5 7.32546C8.49456 7.32546 9.44839 6.93957 10.1517 6.25267C10.8549 5.56578 11.25 4.63415 11.25 3.66273C11.25 2.69131 10.8549 1.75968 10.1517 1.07279C9.44839 0.385894 8.49456 0 7.5 0C6.50544 0 5.55161 0.385894 4.84835 1.07279C4.14509 1.75968 3.75 2.69131 3.75 3.66273C3.75 4.63415 4.14509 5.56578 4.84835 6.25267C5.55161 6.93957 6.50544 7.32546 7.5 7.32546ZM10 3.66273C10 4.31034 9.73661 4.93143 9.26777 5.38936C8.79893 5.84729 8.16304 6.10455 7.5 6.10455C6.83696 6.10455 6.20107 5.84729 5.73223 5.38936C5.26339 4.93143 5 4.31034 5 3.66273C5 3.01512 5.26339 2.39403 5.73223 1.9361C6.20107 1.47817 6.83696 1.22091 7.5 1.22091C8.16304 1.22091 8.79893 1.47817 9.26777 1.9361C9.73661 2.39403 10 3.01512 10 3.66273ZM15 13.43C15 14.6509 13.75 14.6509 13.75 14.6509H1.25C1.25 14.6509 0 14.6509 0 13.43C0 12.2091 1.25 8.54637 7.5 8.54637C13.75 8.54637 15 12.2091 15 13.43ZM13.75 13.4251C13.7487 13.1248 13.5575 12.2213 12.71 11.3935C11.895 10.5975 10.3612 9.76728 7.5 9.76728C4.63875 9.76728 3.105 10.5975 2.29 11.3935C1.4425 12.2213 1.2525 13.1248 1.25 13.4251H13.75Z" fill="#FCF9F9"/>
<path d="M7.5 7.32546V10.3255V7.32546ZM7.5 0V-3V0ZM3.75 3.66273H0.75H3.75ZM10 3.66273L13 3.66273L10 3.66273ZM7.5 6.10455V9.10455V6.10455ZM5 3.66273H2H5ZM7.5 1.22091V-1.77909V1.22091ZM13.75 13.4251V16.4251H16.7625L16.75 13.4126L13.75 13.4251ZM2.29 11.3935L0.193799 9.24739L2.29 11.3935ZM1.25 13.4251L-1.7499 13.4002L-1.77508 16.4251H1.25V13.4251ZM7.5 7.32546V10.3255C9.26772 10.3255 10.9768 9.64024 12.2479 8.39882L10.1517 6.25267L8.05545 4.10653C7.91993 4.23889 7.72141 4.32546 7.5 4.32546V7.32546ZM10.1517 6.25267L12.2479 8.39882C13.5213 7.15505 14.25 5.45289 14.25 3.66273H11.25H8.25C8.25 3.8154 8.18857 3.97651 8.05545 4.10653L10.1517 6.25267ZM11.25 3.66273H14.25C14.25 1.87257 13.5213 0.170413 12.2479 -1.07336L10.1517 1.07279L8.05545 3.21893C8.18857 3.34896 8.25 3.51006 8.25 3.66273H11.25ZM10.1517 1.07279L12.2479 -1.07336C10.9768 -2.31478 9.26772 -3 7.5 -3V0V3C7.72141 3 7.91993 3.08657 8.05545 3.21893L10.1517 1.07279ZM7.5 0V-3C5.73228 -3 4.02315 -2.31478 2.75215 -1.07336L4.84835 1.07279L6.94455 3.21893C7.08007 3.08657 7.27859 3 7.5 3V0ZM4.84835 1.07279L2.75215 -1.07336C1.47875 0.170412 0.75 1.87257 0.75 3.66273L3.75 3.66273H6.75C6.75 3.51006 6.81143 3.34896 6.94455 3.21893L4.84835 1.07279ZM3.75 3.66273H0.75C0.75 5.4529 1.47875 7.15505 2.75215 8.39882L4.84835 6.25267L6.94455 4.10653C6.81143 3.97651 6.75 3.8154 6.75 3.66273L3.75 3.66273ZM4.84835 6.25267L2.75215 8.39882C4.02315 9.64024 5.73228 10.3255 7.5 10.3255V7.32546V4.32546C7.27859 4.32546 7.08007 4.23889 6.94455 4.10653L4.84835 6.25267ZM10 3.66273L7 3.66273C7 3.49159 7.07026 3.34216 7.17157 3.24321L9.26777 5.38936L11.364 7.5355C12.403 6.5207 13 5.12909 13 3.66273H10ZM9.26777 5.38936L7.17157 3.24321C7.27047 3.14661 7.38989 3.10455 7.5 3.10455V6.10455V9.10455C8.93619 9.10455 10.3274 8.54797 11.364 7.5355L9.26777 5.38936ZM7.5 6.10455V3.10455C7.61011 3.10455 7.72953 3.14661 7.82843 3.24321L5.73223 5.38936L3.63603 7.5355C4.67262 8.54797 6.06381 9.10455 7.5 9.10455V6.10455ZM5.73223 5.38936L7.82843 3.24321C7.92974 3.34216 8 3.49159 8 3.66273L5 3.66273H2C2 5.12909 2.59705 6.5207 3.63603 7.5355L5.73223 5.38936ZM5 3.66273H8C8 3.83387 7.92974 3.9833 7.82843 4.08225L5.73223 1.9361L3.63603 -0.210043C2.59705 0.804762 2 2.19637 2 3.66273L5 3.66273ZM5.73223 1.9361L7.82843 4.08225C7.72953 4.17885 7.61011 4.22091 7.5 4.22091V1.22091V-1.77909C6.06381 -1.77909 4.67262 -1.2225 3.63603 -0.210043L5.73223 1.9361ZM7.5 1.22091V4.22091C7.38989 4.22091 7.27047 4.17885 7.17157 4.08225L9.26777 1.9361L11.364 -0.210043C10.3274 -1.2225 8.93619 -1.77909 7.5 -1.77909V1.22091ZM9.26777 1.9361L7.17157 4.08225C7.07026 3.9833 7 3.83387 7 3.66273H10L13 3.66273C13 2.19637 12.403 0.804762 11.364 -0.210043L9.26777 1.9361ZM15 13.43H12C12 13.1956 12.0696 12.8215 12.3269 12.4446C12.5689 12.09 12.8645 11.8973 13.0585 11.8026C13.2424 11.7128 13.3888 11.6829 13.4633 11.6708C13.5078 11.6636 13.5512 11.6589 13.5949 11.6558C13.6173 11.6543 13.641 11.653 13.6664 11.6522C13.6792 11.6518 13.6925 11.6515 13.7063 11.6513C13.7133 11.6511 13.7204 11.6511 13.7277 11.651C13.7313 11.651 13.735 11.651 13.7387 11.6509C13.7406 11.6509 13.7424 11.6509 13.7443 11.6509C13.7453 11.6509 13.7467 11.6509 13.7471 11.6509C13.7486 11.6509 13.75 11.6509 13.75 14.6509C13.75 17.6509 13.7514 17.6509 13.7529 17.6509C13.7534 17.6509 13.7548 17.6509 13.7558 17.6509C13.7578 17.6509 13.7598 17.6509 13.7618 17.6509C13.7658 17.6509 13.7699 17.6509 13.7742 17.6508C13.7826 17.6508 13.7915 17.6507 13.8008 17.6505C13.8194 17.6502 13.8398 17.6497 13.8617 17.649C13.9054 17.6476 13.956 17.6452 14.0125 17.6413C14.1246 17.6334 14.2657 17.6192 14.4273 17.5929C14.7362 17.5426 15.1951 17.4364 15.6915 17.194C16.198 16.9467 16.8061 16.5251 17.2825 15.8271C17.7742 15.1068 18 14.2749 18 13.43H15ZM13.75 14.6509V11.6509H1.25V14.6509V17.6509H13.75V14.6509ZM1.25 14.6509C1.25 11.6509 1.25143 11.6509 1.25285 11.6509C1.25332 11.6509 1.25475 11.6509 1.25569 11.6509C1.25757 11.6509 1.25945 11.6509 1.26131 11.6509C1.26503 11.651 1.26871 11.651 1.27235 11.651C1.27962 11.6511 1.28673 11.6511 1.29367 11.6513C1.30755 11.6515 1.32084 11.6518 1.33358 11.6522C1.35899 11.653 1.38271 11.6543 1.40508 11.6558C1.44881 11.6589 1.49223 11.6636 1.53671 11.6708C1.61117 11.6829 1.75764 11.7128 1.94149 11.8026C2.13549 11.8973 2.43111 12.09 2.67315 12.4446C2.93041 12.8215 3 13.1956 3 13.43H0H-3C-3 14.2749 -2.77416 15.1068 -2.28252 15.8271C-1.80611 16.5251 -1.19799 16.9467 -0.691488 17.194C-0.195143 17.4364 0.263833 17.5426 0.572668 17.5929C0.734331 17.6192 0.875406 17.6334 0.987498 17.6413C1.04405 17.6452 1.09463 17.6476 1.13834 17.649C1.16024 17.6497 1.18055 17.6502 1.19916 17.6505C1.20847 17.6507 1.21737 17.6508 1.22584 17.6508C1.23008 17.6509 1.23421 17.6509 1.23824 17.6509C1.24025 17.6509 1.24224 17.6509 1.2442 17.6509C1.24518 17.6509 1.24663 17.6509 1.24712 17.6509C1.24856 17.6509 1.25 17.6509 1.25 14.6509ZM0 13.43H3C3 13.6126 2.99721 13.17 3.50245 12.6765C3.92433 12.2644 4.98749 11.5464 7.5 11.5464V8.54637V5.54637C3.76251 5.54637 1.07567 6.65967 -0.689951 8.3842C-2.37221 10.0273 -3 12.0265 -3 13.43H0ZM7.5 8.54637V11.5464C10.0125 11.5464 11.0757 12.2644 11.4975 12.6765C12.0028 13.17 12 13.6126 12 13.43H15H18C18 12.0265 17.3722 10.0273 15.69 8.3842C13.9243 6.65967 11.2375 5.54637 7.5 5.54637V8.54637ZM13.75 13.4251L16.75 13.4126C16.7454 12.3238 16.2393 10.6471 14.8062 9.24739L12.71 11.3935L10.6138 13.5397C10.7236 13.6469 10.767 13.7345 10.7809 13.7676C10.7887 13.7861 10.7856 13.7841 10.7788 13.7535C10.7753 13.7378 10.7693 13.7083 10.7637 13.6641C10.7608 13.6417 10.7577 13.6125 10.7551 13.577C10.7526 13.5423 10.7503 13.4952 10.75 13.4376L13.75 13.4251ZM12.71 11.3935L14.8062 9.24739C13.3203 7.79604 10.9753 6.76728 7.5 6.76728V9.76728V12.7673C9.74718 12.7673 10.4697 13.399 10.6138 13.5397L12.71 11.3935ZM7.5 9.76728V6.76728C4.02468 6.76728 1.67973 7.79604 0.193799 9.24739L2.29 11.3935L4.3862 13.5397C4.53027 13.399 5.25282 12.7673 7.5 12.7673V9.76728ZM2.29 11.3935L0.193799 9.24739C-1.24365 10.6514 -1.74096 12.3264 -1.7499 13.4002L1.25 13.4251L4.2499 13.4501C4.24943 13.5057 4.247 13.5511 4.2445 13.5846C4.24195 13.6189 4.23887 13.647 4.23608 13.6687C4.2306 13.7113 4.22486 13.7397 4.22149 13.7546C4.21491 13.784 4.2122 13.7852 4.21999 13.7666C4.23394 13.7333 4.27708 13.6463 4.3862 13.5397L2.29 11.3935ZM1.25 13.4251V16.4251H13.75V13.4251V10.4251H1.25V13.4251Z" fill="#466362" mask="url(#path-1-inside-1_497_1105)"/>
<mask id="path-3-inside-2_497_1105" fill="white">
<path fill-rule="evenodd" clip-rule="evenodd" d="M16.875 3.66211C17.0408 3.66211 17.1997 3.72643 17.3169 3.84091C17.4342 3.95539 17.5 4.11066 17.5 4.27256V6.10393H19.375C19.5408 6.10393 19.6997 6.16825 19.8169 6.28273C19.9342 6.39721 20 6.55248 20 6.71439C20 6.87629 19.9342 7.03156 19.8169 7.14604C19.6997 7.26052 19.5408 7.32484 19.375 7.32484H17.5V9.15621C17.5 9.31811 17.4342 9.47338 17.3169 9.58786C17.1997 9.70235 17.0408 9.76666 16.875 9.76666C16.7092 9.76666 16.5503 9.70235 16.4331 9.58786C16.3158 9.47338 16.25 9.31811 16.25 9.15621V7.32484H14.375C14.2092 7.32484 14.0503 7.26052 13.9331 7.14604C13.8158 7.03156 13.75 6.87629 13.75 6.71439C13.75 6.55248 13.8158 6.39721 13.9331 6.28273C14.0503 6.16825 14.2092 6.10393 14.375 6.10393H16.25V4.27256C16.25 4.11066 16.3158 3.95539 16.4331 3.84091C16.5503 3.72643 16.7092 3.66211 16.875 3.66211Z"/>
</mask>
<path fill-rule="evenodd" clip-rule="evenodd" d="M16.875 3.66211C17.0408 3.66211 17.1997 3.72643 17.3169 3.84091C17.4342 3.95539 17.5 4.11066 17.5 4.27256V6.10393H19.375C19.5408 6.10393 19.6997 6.16825 19.8169 6.28273C19.9342 6.39721 20 6.55248 20 6.71439C20 6.87629 19.9342 7.03156 19.8169 7.14604C19.6997 7.26052 19.5408 7.32484 19.375 7.32484H17.5V9.15621C17.5 9.31811 17.4342 9.47338 17.3169 9.58786C17.1997 9.70235 17.0408 9.76666 16.875 9.76666C16.7092 9.76666 16.5503 9.70235 16.4331 9.58786C16.3158 9.47338 16.25 9.31811 16.25 9.15621V7.32484H14.375C14.2092 7.32484 14.0503 7.26052 13.9331 7.14604C13.8158 7.03156 13.75 6.87629 13.75 6.71439C13.75 6.55248 13.8158 6.39721 13.9331 6.28273C14.0503 6.16825 14.2092 6.10393 14.375 6.10393H16.25V4.27256C16.25 4.11066 16.3158 3.95539 16.4331 3.84091C16.5503 3.72643 16.7092 3.66211 16.875 3.66211Z" fill="#FCF9F9"/>
<path d="M17.5 6.10393H14.5V9.10393H17.5V6.10393ZM17.5 7.32484V4.32484H14.5V7.32484H17.5ZM16.25 7.32484H19.25V4.32484H16.25V7.32484ZM16.25 6.10393V9.10393H19.25V6.10393H16.25ZM16.875 3.66211V6.66211C16.2676 6.66211 15.6713 6.4271 15.2207 5.98705L17.3169 3.84091L19.4131 1.69476C18.7282 1.02575 17.8139 0.662109 16.875 0.662109V3.66211ZM17.3169 3.84091L15.2207 5.98705C14.7678 5.54466 14.5 4.9294 14.5 4.27256H17.5H20.5C20.5 3.29192 20.1005 2.36612 19.4131 1.69476L17.3169 3.84091ZM17.5 4.27256H14.5V6.10393H17.5H20.5V4.27256H17.5ZM17.5 6.10393V9.10393H19.375V6.10393V3.10393H17.5V6.10393ZM19.375 6.10393V9.10393C18.7676 9.10393 18.1713 8.86892 17.7207 8.42887L19.8169 6.28273L21.9131 4.13658C21.2282 3.46757 20.3139 3.10393 19.375 3.10393V6.10393ZM19.8169 6.28273L17.7207 8.42887C17.2678 7.98648 17 7.37123 17 6.71439H20H23C23 5.73374 22.6005 4.80794 21.9131 4.13658L19.8169 6.28273ZM20 6.71439H17C17 6.05754 17.2678 5.44229 17.7207 4.9999L19.8169 7.14604L21.9131 9.29219C22.6005 8.62083 23 7.69503 23 6.71439H20ZM19.8169 7.14604L17.7207 4.9999C18.1713 4.55985 18.7676 4.32484 19.375 4.32484V7.32484V10.3248C20.3139 10.3248 21.2282 9.9612 21.9131 9.29219L19.8169 7.14604ZM19.375 7.32484V4.32484H17.5V7.32484V10.3248H19.375V7.32484ZM17.5 7.32484H14.5V9.15621H17.5H20.5V7.32484H17.5ZM17.5 9.15621H14.5C14.5 8.49937 14.7678 7.88412 15.2207 7.44172L17.3169 9.58786L19.4131 11.734C20.1005 11.0626 20.5 10.1368 20.5 9.15621H17.5ZM17.3169 9.58786L15.2207 7.44172C15.6713 7.00166 16.2676 6.76666 16.875 6.76666V9.76666V12.7667C17.8139 12.7667 18.7282 12.403 19.4131 11.734L17.3169 9.58786ZM16.875 9.76666V6.76666C17.4824 6.76666 18.0787 7.00166 18.5293 7.44172L16.4331 9.58786L14.3369 11.734C15.0218 12.403 15.9361 12.7667 16.875 12.7667V9.76666ZM16.4331 9.58786L18.5293 7.44172C18.9822 7.88412 19.25 8.49937 19.25 9.15621H16.25H13.25C13.25 10.1368 13.6495 11.0626 14.3369 11.734L16.4331 9.58786ZM16.25 9.15621H19.25V7.32484H16.25H13.25V9.15621H16.25ZM16.25 7.32484V4.32484H14.375V7.32484V10.3248H16.25V7.32484ZM14.375 7.32484V4.32484C14.9824 4.32484 15.5787 4.55985 16.0293 4.9999L13.9331 7.14604L11.8369 9.29219C12.5218 9.9612 13.4361 10.3248 14.375 10.3248V7.32484ZM13.9331 7.14604L16.0293 4.9999C16.4822 5.44229 16.75 6.05754 16.75 6.71439H13.75H10.75C10.75 7.69503 11.1495 8.62083 11.8369 9.29219L13.9331 7.14604ZM13.75 6.71439H16.75C16.75 7.37123 16.4822 7.98648 16.0293 8.42887L13.9331 6.28273L11.8369 4.13658C11.1495 4.80794 10.75 5.73374 10.75 6.71439H13.75ZM13.9331 6.28273L16.0293 8.42887C15.5787 8.86892 14.9824 9.10393 14.375 9.10393V6.10393V3.10393C13.4361 3.10393 12.5218 3.46757 11.8369 4.13658L13.9331 6.28273ZM14.375 6.10393V9.10393H16.25V6.10393V3.10393H14.375V6.10393ZM16.25 6.10393H19.25V4.27256H16.25H13.25V6.10393H16.25ZM16.25 4.27256H19.25C19.25 4.9294 18.9822 5.54466 18.5293 5.98705L16.4331 3.84091L14.3369 1.69476C13.6495 2.36612 13.25 3.29192 13.25 4.27256H16.25ZM16.4331 3.84091L18.5293 5.98705C18.0787 6.4271 17.4824 6.66211 16.875 6.66211V3.66211V0.662109C15.9361 0.662109 15.0218 1.02575 14.3369 1.69476L16.4331 3.84091Z" fill="#466362" mask="url(#path-3-inside-2_497_1105)"/>
</svg>
