<svg width="22" height="16" viewBox="0 0 22 16" fill="none" xmlns="http://www.w3.org/2000/svg">
<path d="M8.5 8.95508C11.6505 8.95508 13.5589 9.87995 14.6807 10.9756C15.7987 12.0676 16.1249 13.3203 16.125 13.9639C16.125 14.2914 16.0409 14.5457 15.9082 14.7402C15.776 14.9339 15.6005 15.0611 15.4297 15.1445C15.2595 15.2276 15.0909 15.2687 14.9658 15.2891C14.903 15.2993 14.8499 15.305 14.8125 15.3076C14.794 15.3089 14.7791 15.3092 14.7686 15.3096C14.7634 15.3097 14.7589 15.3095 14.7559 15.3096C14.7544 15.3096 14.7529 15.3105 14.752 15.3105H2.24805C2.24713 15.3105 2.24562 15.3096 2.24414 15.3096C2.24113 15.3095 2.23657 15.3097 2.23145 15.3096C2.22088 15.3092 2.20597 15.3089 2.1875 15.3076C2.15008 15.305 2.09703 15.2993 2.03418 15.2891C1.90906 15.2687 1.74051 15.2276 1.57031 15.1445C1.39947 15.0611 1.22395 14.9339 1.0918 14.7402C0.959128 14.5457 0.875 14.2914 0.875 13.9639C0.875109 13.3203 1.20127 12.0676 2.31934 10.9756C3.44108 9.87995 5.34948 8.95508 8.5 8.95508ZM8.5 10.4268C5.66434 10.4268 4.164 11.2488 3.37695 12.0176C2.65646 12.7215 2.43108 13.4771 2.38477 13.834H14.6152C14.5696 13.4777 14.3439 12.7218 13.623 12.0176C12.836 11.2488 11.3357 10.4268 8.5 10.4268ZM8.5 0.40918C9.52678 0.40918 10.5123 0.807577 11.2393 1.51758C11.9662 2.22766 12.375 3.1918 12.375 4.19727C12.3749 5.20254 11.966 6.16599 11.2393 6.87598C10.5123 7.58598 9.52678 7.98438 8.5 7.98438C7.47322 7.98437 6.48766 7.58598 5.76074 6.87598C5.03399 6.16599 4.6251 5.20254 4.625 4.19727C4.625 3.1918 5.03382 2.22766 5.76074 1.51758C6.48766 0.807577 7.47322 0.40918 8.5 0.40918ZM8.5 1.87988C7.86917 1.87988 7.26452 2.12475 6.81934 2.55957C6.37429 2.99429 6.125 3.58379 6.125 4.19727C6.1251 4.81055 6.37445 5.39936 6.81934 5.83398C7.26452 6.26881 7.86917 6.51367 8.5 6.51367C9.13083 6.51367 9.73548 6.26881 10.1807 5.83398C10.6255 5.39936 10.8749 4.81055 10.875 4.19727C10.875 3.58379 10.6257 2.99429 10.1807 2.55957C9.73548 2.12475 9.13083 1.87988 8.5 1.87988Z" fill="#466362" stroke="#466362" stroke-width="0.25"/>
<path d="M17.875 4.07129C18.073 4.07129 18.2634 4.14854 18.4043 4.28613C18.5451 4.42377 18.625 4.61077 18.625 4.80664V6.5127H20.375C20.573 6.5127 20.7634 6.58995 20.9043 6.72754C21.0452 6.86522 21.125 7.05302 21.125 7.24902C21.1249 7.44484 21.0451 7.63196 20.9043 7.76953C20.7634 7.90712 20.573 7.98438 20.375 7.98438H18.625V9.69043C18.625 9.88643 18.5453 10.0742 18.4043 10.2119C18.2635 10.3494 18.0729 10.4258 17.875 10.4258C17.6771 10.4258 17.4865 10.3494 17.3457 10.2119C17.2047 10.0742 17.125 9.88643 17.125 9.69043V7.98438H15.375C15.177 7.98438 14.9866 7.90712 14.8457 7.76953C14.7049 7.63196 14.6251 7.44484 14.625 7.24902C14.625 7.05302 14.7048 6.86522 14.8457 6.72754C14.9866 6.58995 15.177 6.5127 15.375 6.5127H17.125V4.80664C17.125 4.61077 17.2049 4.42377 17.3457 4.28613C17.4866 4.14854 17.677 4.07129 17.875 4.07129Z" fill="#466362" stroke="#466362" stroke-width="0.25"/>
</svg>
