<svg width="20" height="21" viewBox="0 0 20 21" fill="none" xmlns="http://www.w3.org/2000/svg">
<path d="M5.35714 0C5.95089 0 6.42857 0.468125 6.42857 1.05V2.8H13.5714V1.05C13.5714 0.468125 14.0491 0 14.6429 0C15.2366 0 15.7143 0.468125 15.7143 1.05V2.8H17.1429C18.7188 2.8 20 4.05562 20 5.6V18.2C20 19.7444 18.7188 21 17.1429 21H2.85714C1.28125 21 0 19.7444 0 18.2V5.6C0 4.05562 1.28125 2.8 2.85714 2.8H4.28571V1.05C4.28571 0.468125 4.76339 0 5.35714 0ZM5.35714 4.9H2.85714C2.46429 4.9 2.14286 5.215 2.14286 5.6V18.2C2.14286 18.585 2.46429 18.9 2.85714 18.9H17.1429C17.5357 18.9 17.8571 18.585 17.8571 18.2V5.6C17.8571 5.215 17.5357 4.9 17.1429 4.9H5.35714ZM13.0312 8.92937C13.4509 9.34062 13.4509 10.0056 13.0312 10.4125L11.5179 11.8956L13.0312 13.3787C13.4509 13.79 13.4509 14.455 13.0312 14.8619C12.6116 15.2688 11.933 15.2731 11.5179 14.8619L10.0045 13.3787L8.49107 14.8619C8.07143 15.2731 7.39286 15.2731 6.97768 14.8619C6.5625 14.4506 6.55804 13.7856 6.97768 13.3787L8.49107 11.8956L6.97768 10.4125C6.55804 10.0013 6.55804 9.33625 6.97768 8.92937C7.39732 8.5225 8.07589 8.51813 8.49107 8.92937L10.0045 10.4125L11.5179 8.92937C11.9375 8.51813 12.6161 8.51813 13.0312 8.92937Z" fill="#466362"/>
</svg>
