<svg width="20" height="20" viewBox="0 0 20 20" fill="none" xmlns="http://www.w3.org/2000/svg">
<mask id="path-1-inside-1_572_615" fill="white">
<path d="M10 4.27256C10 4.11066 9.93415 3.95539 9.81694 3.84091C9.69973 3.72643 9.54076 3.66211 9.375 3.66211C9.20924 3.66211 9.05027 3.72643 8.93306 3.84091C8.81585 3.95539 8.75 4.11066 8.75 4.27256V10.9876C8.75004 11.0952 8.77919 11.2009 8.83451 11.2939C8.88982 11.387 8.96934 11.4641 9.065 11.5174L13.44 13.9593C13.5836 14.0351 13.7518 14.053 13.9087 14.0092C14.0657 13.9655 14.1988 13.8635 14.2798 13.7251C14.3608 13.5867 14.3831 13.4229 14.342 13.2686C14.301 13.1143 14.1997 12.9819 14.06 12.8995L10 10.6335V4.27256Z"/>
</mask>
<path d="M8.75 10.9876H5.75L5.75 10.9886L8.75 10.9876ZM9.065 11.5174L10.5271 8.89784L10.5267 8.89761L9.065 11.5174ZM13.44 13.9593L11.9779 16.5789L12.0085 16.596L12.0395 16.6123L13.44 13.9593ZM14.06 12.8995L15.583 10.3148L15.5527 10.297L15.5221 10.2799L14.06 12.8995ZM10 10.6335H7V12.3948L8.53792 13.2531L10 10.6335ZM10 4.27256H13C13 3.29191 12.6005 2.36612 11.9131 1.69476L9.81694 3.84091L7.72074 5.98705C7.26781 5.54466 7 4.92941 7 4.27256H10ZM9.81694 3.84091L11.9131 1.69476C11.2282 1.02575 10.3139 0.662109 9.375 0.662109V3.66211V6.66211C8.7676 6.66211 8.17127 6.4271 7.72074 5.98705L9.81694 3.84091ZM9.375 3.66211V0.662109C8.43608 0.662109 7.52181 1.02575 6.83686 1.69476L8.93306 3.84091L11.0293 5.98705C10.5787 6.4271 9.9824 6.66211 9.375 6.66211V3.66211ZM8.93306 3.84091L6.83686 1.69476C6.14951 2.36612 5.75 3.29191 5.75 4.27256H8.75H11.75C11.75 4.92941 11.4822 5.54466 11.0293 5.98705L8.93306 3.84091ZM8.75 4.27256H5.75V10.9876H8.75H11.75V4.27256H8.75ZM8.75 10.9876L5.75 10.9886C5.75021 11.6388 5.92665 12.2733 6.25577 12.8269L8.83451 11.2939L11.4132 9.7609C11.6317 10.1284 11.7499 10.5515 11.75 10.9866L8.75 10.9876ZM8.83451 11.2939L6.25577 12.8269C6.58455 13.38 7.05184 13.8296 7.60333 14.1373L9.065 11.5174L10.5267 8.89761C10.8868 9.09856 11.1951 9.39394 11.4132 9.7609L8.83451 11.2939ZM9.065 11.5174L7.60292 14.137L11.9779 16.5789L13.44 13.9593L14.9021 11.3397L10.5271 8.89784L9.065 11.5174ZM13.44 13.9593L12.0395 16.6123C12.8639 17.0475 13.8218 17.1479 14.7145 16.899L13.9087 14.0092L13.103 11.1195C13.6818 10.9581 14.3033 11.0226 14.8405 11.3062L13.44 13.9593ZM13.9087 14.0092L14.7145 16.899C15.6085 16.6497 16.3878 16.0629 16.8692 15.24L14.2798 13.7251L11.6904 12.2102C12.0099 11.6641 12.5228 11.2812 13.103 11.1195L13.9087 14.0092ZM14.2798 13.7251L16.8692 15.24C17.3522 14.4145 17.489 13.4279 17.241 12.4967L14.342 13.2686L11.443 14.0404C11.2773 13.4178 11.3694 12.7589 11.6904 12.2102L14.2798 13.7251ZM14.342 13.2686L17.241 12.4967C16.9936 11.5674 16.3895 10.7901 15.583 10.3148L14.06 12.8995L12.537 15.4842C12.0099 15.1736 11.6083 14.6613 11.443 14.0404L14.342 13.2686ZM14.06 12.8995L15.5221 10.2799L11.4621 8.0139L10 10.6335L8.53792 13.2531L12.5979 15.5191L14.06 12.8995ZM10 10.6335H13V4.27256H10H7V10.6335H10Z" fill="#466362" mask="url(#path-1-inside-1_572_615)"/>
<mask id="path-3-inside-2_572_615" fill="white">
<path d="M10 19.5346C12.6522 19.5346 15.1957 18.5055 17.0711 16.6738C18.9464 14.8421 20 12.3577 20 9.76728C20 7.17684 18.9464 4.69249 17.0711 2.86077C15.1957 1.02905 12.6522 0 10 0C7.34784 0 4.8043 1.02905 2.92893 2.86077C1.05357 4.69249 0 7.17684 0 9.76728C0 12.3577 1.05357 14.8421 2.92893 16.6738C4.8043 18.5055 7.34784 19.5346 10 19.5346ZM18.75 9.76728C18.75 12.0339 17.8281 14.2077 16.1872 15.8105C14.5462 17.4132 12.3206 18.3137 10 18.3137C7.67936 18.3137 5.45376 17.4132 3.81282 15.8105C2.17187 14.2077 1.25 12.0339 1.25 9.76728C1.25 7.50064 2.17187 5.32684 3.81282 3.72408C5.45376 2.12133 7.67936 1.22091 10 1.22091C12.3206 1.22091 14.5462 2.12133 16.1872 3.72408C17.8281 5.32684 18.75 7.50064 18.75 9.76728Z"/>
</mask>
<path d="M10 19.5346V22.5346V19.5346ZM20 9.76728H23H20ZM10 0V-3V0ZM0 9.76728H-3H0ZM18.75 9.76728H21.75H18.75ZM1.25 9.76728H-1.75H1.25ZM10 1.22091V-1.77909V1.22091ZM10 19.5346V22.5346C13.4253 22.5346 16.7242 21.2062 19.1673 18.8199L17.0711 16.6738L14.9749 14.5276C13.6672 15.8048 11.879 16.5346 10 16.5346V19.5346ZM17.0711 16.6738L19.1673 18.8199C21.6128 16.4313 23 13.1765 23 9.76728H20H17C17 11.539 16.2801 13.2528 14.9749 14.5276L17.0711 16.6738ZM20 9.76728H23C23 6.35809 21.6128 3.10322 19.1673 0.714625L17.0711 2.86077L14.9749 5.00692C16.2801 6.28176 17 7.99559 17 9.76728H20ZM17.0711 2.86077L19.1673 0.714625C16.7242 -1.67163 13.4253 -3 10 -3V0V3C11.879 3 13.6672 3.72973 14.9749 5.00692L17.0711 2.86077ZM10 0V-3C6.57468 -3 3.27584 -1.67163 0.832731 0.714625L2.92893 2.86077L5.02513 5.00692C6.33275 3.72973 8.12099 3 10 3V0ZM2.92893 2.86077L0.832731 0.714625C-1.61277 3.10322 -3 6.35809 -3 9.76728H0H3C3 7.99559 3.71991 6.28176 5.02513 5.00692L2.92893 2.86077ZM0 9.76728H-3C-3 13.1765 -1.61277 16.4313 0.832731 18.8199L2.92893 16.6738L5.02513 14.5276C3.71991 13.2528 3 11.539 3 9.76728H0ZM2.92893 16.6738L0.832731 18.8199C3.27584 21.2062 6.57468 22.5346 10 22.5346V19.5346V16.5346C8.12099 16.5346 6.33275 15.8048 5.02513 14.5276L2.92893 16.6738ZM18.75 9.76728H15.75C15.75 11.2152 15.1618 12.6185 14.091 13.6643L16.1872 15.8105L18.2834 17.9566C20.4945 15.797 21.75 12.8527 21.75 9.76728H18.75ZM16.1872 15.8105L14.091 13.6643C13.0178 14.7126 11.5475 15.3137 10 15.3137V18.3137V21.3137C13.0938 21.3137 16.0747 20.1139 18.2834 17.9566L16.1872 15.8105ZM10 18.3137V15.3137C8.45251 15.3137 6.98222 14.7126 5.90902 13.6643L3.81282 15.8105L1.71661 17.9566C3.9253 20.1139 6.9062 21.3137 10 21.3137V18.3137ZM3.81282 15.8105L5.90902 13.6643C4.83822 12.6185 4.25 11.2152 4.25 9.76728H1.25H-1.75C-1.75 12.8527 -0.494471 15.797 1.71661 17.9566L3.81282 15.8105ZM1.25 9.76728H4.25C4.25 8.31939 4.83822 6.91611 5.90902 5.87023L3.81282 3.72408L1.71661 1.57794C-0.494471 3.73757 -1.75 6.68189 -1.75 9.76728H1.25ZM3.81282 3.72408L5.90902 5.87023C6.98222 4.82201 8.45251 4.22091 10 4.22091V1.22091V-1.77909C6.9062 -1.77909 3.9253 -0.579348 1.71661 1.57794L3.81282 3.72408ZM10 1.22091V4.22091C11.5475 4.22091 13.0178 4.82201 14.091 5.87023L16.1872 3.72408L18.2834 1.57794C16.0747 -0.579348 13.0938 -1.77909 10 -1.77909V1.22091ZM16.1872 3.72408L14.091 5.87023C15.1618 6.91611 15.75 8.31939 15.75 9.76728H18.75H21.75C21.75 6.68189 20.4945 3.73757 18.2834 1.57794L16.1872 3.72408Z" fill="#466362" mask="url(#path-3-inside-2_572_615)"/>
</svg>
