<svg width="22" height="22" viewBox="0 0 22 22" fill="none" xmlns="http://www.w3.org/2000/svg">
<path d="M10.375 4.41211C10.6051 4.41211 10.8267 4.50153 10.9912 4.66211C11.1559 4.82297 11.25 5.04237 11.25 5.27246V11.4863L15.1816 13.6816L15.1865 13.6836V13.6846C15.3818 13.7996 15.5257 13.9853 15.584 14.2041C15.6423 14.4231 15.6096 14.6559 15.4951 14.8516C15.3808 15.0468 15.1938 15.1892 14.9756 15.25C14.7574 15.3108 14.5234 15.2863 14.3232 15.1807L14.3184 15.1777L9.94336 12.7354C9.80974 12.6608 9.69724 12.5532 9.61914 12.4219C9.54102 12.2905 9.50005 12.1401 9.5 11.9873V5.27246C9.50003 5.04237 9.59409 4.82297 9.75879 4.66211C9.92329 4.50153 10.1449 4.41211 10.375 4.41211Z" fill="#466362" stroke="#466362" stroke-width="0.5"/>
<path d="M11 0.75C13.7166 0.75 16.3234 1.80371 18.2461 3.68164C20.1689 5.55976 21.25 8.10892 21.25 10.7676C21.2499 13.426 20.1688 15.9745 18.2461 17.8525C16.3234 19.7305 13.7166 20.7842 11 20.7842C8.28341 20.7842 5.67658 19.7305 3.75391 17.8525C1.83124 15.9745 0.75008 13.426 0.75 10.7676C0.75 8.10892 1.83105 5.55976 3.75391 3.68164C5.67658 1.80371 8.28341 0.75 11 0.75ZM11 2.4707C8.74379 2.4707 6.58094 3.34678 4.9873 4.90332C3.39406 6.45964 2.5 8.5693 2.5 10.7676C2.50008 12.9659 3.39394 15.0756 4.9873 16.6318C6.58094 18.1884 8.74379 19.0635 11 19.0635C13.2562 19.0635 15.4191 18.1884 17.0127 16.6318C18.6061 15.0756 19.4999 12.9659 19.5 10.7676C19.5 8.5693 18.6059 6.45964 17.0127 4.90332C15.4191 3.34678 13.2562 2.4707 11 2.4707Z" fill="#466362" stroke="#466362" stroke-width="0.5"/>
</svg>
