<svg width="50" height="51" viewBox="0 0 50 51" fill="none" xmlns="http://www.w3.org/2000/svg">
<path d="M25 0.573242C18.2156 0.573242 17.3625 0.604612 14.6969 0.723816C12.0312 0.849293 10.2156 1.26964 8.625 1.89076C6.95576 2.51917 5.44419 3.50753 4.19688 4.78616C2.92312 6.03824 1.93852 7.55559 1.3125 9.23121C0.69375 10.8248 0.271875 12.6505 0.15 15.3169C0.03125 17.999 0 18.8522 0 25.6719C0 32.4854 0.03125 33.3386 0.15 36.0144C0.275 38.6871 0.69375 40.5097 1.3125 42.1064C1.95312 43.7564 2.80625 45.1555 4.19688 46.5514C5.58438 47.9474 6.97813 48.8069 8.62187 49.4468C10.2156 50.0679 12.0281 50.4914 14.6906 50.6138C17.3594 50.733 18.2094 50.7644 25 50.7644C31.7906 50.7644 32.6375 50.733 35.3063 50.6138C37.9656 50.4883 39.7875 50.0679 41.3781 49.4468C43.0462 48.818 44.5567 47.8297 45.8031 46.5514C47.1937 45.1555 48.0469 43.7564 48.6875 42.1064C49.3031 40.5097 49.725 38.6871 49.85 36.0144C49.9688 33.3386 50 32.4854 50 25.6688C50 18.8522 49.9688 17.999 49.85 15.32C49.725 12.6505 49.3031 10.8248 48.6875 9.23121C48.0615 7.55559 47.0769 6.03824 45.8031 4.78616C44.5558 3.50753 43.0442 2.51917 41.375 1.89076C39.7812 1.26964 37.9625 0.846156 35.3031 0.723816C32.6344 0.604612 31.7875 0.573242 24.9937 0.573242H25ZM22.7594 5.09672H25.0031C31.6781 5.09672 32.4688 5.11867 35.1031 5.24102C37.5406 5.35081 38.8656 5.76175 39.7469 6.10367C40.9125 6.55853 41.7469 7.10436 42.6219 7.9827C43.4969 8.86105 44.0375 9.69548 44.4906 10.8687C44.8344 11.7502 45.2406 13.0802 45.35 15.5271C45.4719 18.1715 45.4969 18.9651 45.4969 25.6625C45.4969 32.3599 45.4719 33.1567 45.35 35.8011C45.2406 38.2479 44.8313 39.5749 44.4906 40.4595C44.087 41.5477 43.4476 42.5324 42.6187 43.3423C41.7437 44.2207 40.9125 44.7634 39.7438 45.2182C38.8688 45.5633 37.5438 45.9711 35.1031 46.084C32.4688 46.2032 31.6781 46.2315 25.0031 46.2315C18.3281 46.2315 17.5344 46.2032 14.9 46.084C12.4625 45.9711 11.1406 45.5633 10.2594 45.2182C9.17448 44.8144 8.19249 44.1736 7.38437 43.3423C6.55398 42.5318 5.91353 41.546 5.50938 40.4564C5.16875 39.5749 4.75938 38.2448 4.65 35.798C4.53125 33.1535 4.50625 32.3599 4.50625 25.6562C4.50625 18.9526 4.53125 18.1652 4.65 15.5208C4.7625 13.074 5.16875 11.7439 5.5125 10.8593C5.96563 9.6892 6.50937 8.85164 7.38437 7.97329C8.25937 7.09495 9.09062 6.55226 10.2594 6.0974C11.1406 5.75234 12.4625 5.34453 14.9 5.2316C17.2063 5.12495 18.1 5.09358 22.7594 5.09044V5.09672ZM38.3469 9.26258C37.9529 9.26258 37.5628 9.34047 37.1988 9.49181C36.8348 9.64315 36.5041 9.86498 36.2256 10.1446C35.947 10.4243 35.726 10.7562 35.5752 11.1216C35.4245 11.487 35.3469 11.8786 35.3469 12.274C35.3469 12.6695 35.4245 13.0611 35.5752 13.4265C35.726 13.7919 35.947 14.1238 36.2256 14.4035C36.5041 14.6831 36.8348 14.9049 37.1988 15.0563C37.5628 15.2076 37.9529 15.2855 38.3469 15.2855C39.1425 15.2855 39.9056 14.9682 40.4682 14.4035C41.0308 13.8387 41.3469 13.0727 41.3469 12.274C41.3469 11.4754 41.0308 10.7094 40.4682 10.1446C39.9056 9.57986 39.1425 9.26258 38.3469 9.26258ZM25.0031 12.7822C23.3002 12.7556 21.609 13.0692 20.0281 13.7049C18.4471 14.3407 17.0079 15.2857 15.7942 16.4852C14.5806 17.6846 13.6168 19.1144 12.9589 20.6913C12.301 22.2682 11.9622 23.9607 11.9622 25.6704C11.9622 27.38 12.301 29.0725 12.9589 30.6494C13.6168 32.2264 14.5806 33.6562 15.7942 34.8556C17.0079 36.055 18.4471 37.0001 20.0281 37.6358C21.609 38.2715 23.3002 38.5852 25.0031 38.5585C28.3736 38.5057 31.5882 37.1246 33.9531 34.7134C36.3179 32.3021 37.6434 29.0541 37.6434 25.6704C37.6434 22.2866 36.3179 19.0386 33.9531 16.6273C31.5882 14.2161 28.3736 12.835 25.0031 12.7822ZM25.0031 17.3026C26.0976 17.3026 27.1814 17.519 28.1926 17.9394C29.2037 18.3598 30.1225 18.9761 30.8964 19.753C31.6703 20.5299 32.2842 21.4521 32.7031 22.4672C33.1219 23.4822 33.3375 24.5701 33.3375 25.6688C33.3375 26.7675 33.1219 27.8554 32.7031 28.8704C32.2842 29.8855 31.6703 30.8077 30.8964 31.5846C30.1225 32.3615 29.2037 32.9777 28.1926 33.3982C27.1814 33.8186 26.0976 34.035 25.0031 34.035C22.7927 34.035 20.6728 33.1536 19.1098 31.5846C17.5468 30.0156 16.6688 27.8877 16.6688 25.6688C16.6688 23.4499 17.5468 21.322 19.1098 19.753C20.6728 18.184 22.7927 17.3026 25.0031 17.3026Z" fill="#1C2541"/>
</svg>
