<svg width="30" height="31" viewBox="0 0 30 31" fill="none" xmlns="http://www.w3.org/2000/svg">
<path d="M15 0.52832C10.9294 0.52832 10.4175 0.54707 8.81812 0.61832C7.21875 0.69332 6.12937 0.94457 5.175 1.31582C4.17346 1.69143 3.26651 2.28219 2.51813 3.04645C1.75387 3.79483 1.16311 4.70178 0.7875 5.70332C0.41625 6.65582 0.163125 7.74707 0.09 9.34082C0.01875 10.9439 0 11.4539 0 15.5302C0 19.6027 0.01875 20.1127 0.09 21.7121C0.165 23.3096 0.41625 24.3989 0.7875 25.3533C1.17188 26.3396 1.68375 27.1758 2.51813 28.0102C3.35063 28.8446 4.18687 29.3583 5.17313 29.7408C6.12937 30.1121 7.21688 30.3652 8.81437 30.4383C10.4156 30.5096 10.9256 30.5283 15 30.5283C19.0744 30.5283 19.5825 30.5096 21.1838 30.4383C22.7794 30.3633 23.8725 30.1121 24.8269 29.7408C25.8277 29.365 26.734 28.7742 27.4819 28.0102C28.3162 27.1758 28.8281 26.3396 29.2125 25.3533C29.5819 24.3989 29.835 23.3096 29.91 21.7121C29.9812 20.1127 30 19.6027 30 15.5283C30 11.4539 29.9812 10.9439 29.91 9.3427C29.835 7.74707 29.5819 6.65582 29.2125 5.70332C28.8369 4.70178 28.2461 3.79483 27.4819 3.04645C26.7335 2.28219 25.8265 1.69143 24.825 1.31582C23.8687 0.94457 22.7775 0.691445 21.1819 0.61832C19.5806 0.54707 19.0725 0.52832 14.9963 0.52832H15ZM13.6556 3.23207H15.0019C19.0069 3.23207 19.4812 3.2452 21.0619 3.31832C22.5244 3.38395 23.3194 3.62957 23.8481 3.83395C24.5475 4.10582 25.0481 4.43207 25.5731 4.95707C26.0981 5.48207 26.4225 5.98082 26.6944 6.68207C26.9006 7.20895 27.1444 8.00395 27.21 9.46645C27.2831 11.0471 27.2981 11.5214 27.2981 15.5246C27.2981 19.5277 27.2831 20.0039 27.21 21.5846C27.1444 23.0471 26.8988 23.8402 26.6944 24.3689C26.4522 25.0194 26.0686 25.6079 25.5712 26.0921C25.0462 26.6171 24.5475 26.9414 23.8463 27.2133C23.3213 27.4196 22.5262 27.6633 21.0619 27.7308C19.4812 27.8021 19.0069 27.8189 15.0019 27.8189C10.9969 27.8189 10.5206 27.8021 8.94 27.7308C7.4775 27.6633 6.68437 27.4196 6.15562 27.2133C5.50469 26.9719 4.9155 26.589 4.43062 26.0921C3.93239 25.6076 3.54812 25.0184 3.30562 24.3671C3.10125 23.8402 2.85563 23.0452 2.79 21.5827C2.71875 20.0021 2.70375 19.5277 2.70375 15.5208C2.70375 11.5139 2.71875 11.0433 2.79 9.4627C2.8575 8.0002 3.10125 7.2052 3.3075 6.67645C3.57938 5.97707 3.90562 5.47645 4.43062 4.95145C4.95563 4.42645 5.45437 4.10207 6.15562 3.8302C6.68437 3.62395 7.4775 3.3802 8.94 3.3127C10.3238 3.24895 10.86 3.2302 13.6556 3.22832V3.23207ZM23.0081 5.72207C22.7717 5.72207 22.5377 5.76863 22.3193 5.85909C22.1009 5.94955 21.9025 6.08213 21.7353 6.24928C21.5682 6.41642 21.4356 6.61485 21.3451 6.83324C21.2547 7.05163 21.2081 7.28569 21.2081 7.52207C21.2081 7.75845 21.2547 7.99251 21.3451 8.2109C21.4356 8.42929 21.5682 8.62772 21.7353 8.79486C21.9025 8.96201 22.1009 9.09459 22.3193 9.18505C22.5377 9.27551 22.7717 9.32207 23.0081 9.32207C23.4855 9.32207 23.9434 9.13243 24.2809 8.79486C24.6185 8.4573 24.8081 7.99946 24.8081 7.52207C24.8081 7.04468 24.6185 6.58684 24.2809 6.24928C23.9434 5.91171 23.4855 5.72207 23.0081 5.72207ZM15.0019 7.82582C13.9801 7.80988 12.9654 7.99736 12.0168 8.37733C11.0682 8.75731 10.2047 9.3222 9.47653 10.0391C8.74835 10.756 8.17006 11.6106 7.77533 12.5532C7.3806 13.4957 7.17731 14.5074 7.17731 15.5293C7.17731 16.5511 7.3806 17.5628 7.77533 18.5053C8.17006 19.4479 8.74835 20.3025 9.47653 21.0194C10.2047 21.7363 11.0682 22.3012 12.0168 22.6812C12.9654 23.0612 13.9801 23.2486 15.0019 23.2327C17.0241 23.2011 18.9529 22.3757 20.3718 20.9344C21.7908 19.4932 22.5861 17.5518 22.5861 15.5293C22.5861 13.5067 21.7908 11.5653 20.3718 10.1241C18.9529 8.68286 17.0241 7.85737 15.0019 7.82582ZM15.0019 10.5277C15.6586 10.5277 16.3088 10.657 16.9155 10.9083C17.5222 11.1596 18.0735 11.528 18.5379 11.9923C19.0022 12.4567 19.3705 13.008 19.6219 13.6147C19.8732 14.2214 20.0025 14.8716 20.0025 15.5283C20.0025 16.185 19.8732 16.8353 19.6219 17.442C19.3705 18.0487 19.0022 18.5999 18.5379 19.0643C18.0735 19.5286 17.5222 19.897 16.9155 20.1483C16.3088 20.3996 15.6586 20.5289 15.0019 20.5289C13.6756 20.5289 12.4037 20.0021 11.4659 19.0643C10.5281 18.1265 10.0013 16.8546 10.0013 15.5283C10.0013 14.2021 10.5281 12.9301 11.4659 11.9923C12.4037 11.0545 13.6756 10.5277 15.0019 10.5277Z" fill="#1C2541"/>
</svg>
