<svg width="30" height="31" viewBox="0 0 30 31" fill="none" xmlns="http://www.w3.org/2000/svg">
<path d="M15 0.52832C23.2706 0.52832 30 6.25869 30 13.3036C30 16.1235 28.9594 18.662 26.7844 21.1632C23.6381 24.965 16.6012 29.5954 15 30.3038C13.4438 30.9925 13.6237 29.9161 13.695 29.4911L13.7006 29.4557L13.9144 28.1077C13.965 27.7062 14.0175 27.0824 13.8656 26.6849C13.6969 26.2461 13.0331 26.0178 12.5456 25.9076C5.33625 24.9099 0 19.6184 0 13.3036C0 6.25869 6.73125 0.52832 15 0.52832ZM9.41625 15.6532H6.55688V10.2062C6.55688 10.1251 6.52632 10.0473 6.47187 9.98981C6.41742 9.9323 6.3435 9.89972 6.26625 9.8992H5.2125C5.17409 9.8992 5.13605 9.90714 5.10057 9.92257C5.06508 9.938 5.03283 9.96061 5.00567 9.98912C4.97851 10.0176 4.95696 10.0515 4.94227 10.0887C4.92757 10.126 4.92 10.1659 4.92 10.2062V17.0661C4.92 17.1468 4.95187 17.2235 5.0025 17.2767V17.2786L5.00625 17.2826L5.01 17.2865C5.03669 17.314 5.06835 17.3357 5.10312 17.3502C5.13789 17.3648 5.17508 17.3719 5.2125 17.3711H9.41625C9.5775 17.3711 9.70688 17.2334 9.70688 17.0641V15.9621C9.70712 15.9218 9.6998 15.8819 9.68533 15.8445C9.67086 15.8072 9.64952 15.7732 9.62253 15.7445C9.59554 15.7158 9.56344 15.693 9.52804 15.6773C9.49265 15.6616 9.45466 15.6534 9.41625 15.6532ZM10.8994 9.8992C10.8218 9.8992 10.7474 9.93155 10.6925 9.98912C10.6377 10.0467 10.6069 10.1248 10.6069 10.2062V17.0661C10.6069 17.2353 10.7381 17.3711 10.8994 17.3711H11.9531C12.1144 17.3711 12.2438 17.2334 12.2438 17.0661V10.2062C12.2438 10.1251 12.2132 10.0473 12.1587 9.98981C12.1043 9.9323 12.0304 9.89972 11.9531 9.8992H10.8994ZM18.1425 9.8992C18.0649 9.8992 17.9905 9.93155 17.9357 9.98912C17.8808 10.0467 17.85 10.1248 17.85 10.2062V14.2796L14.8556 10.037L14.8313 10.0074L14.8125 9.98579L14.8069 9.97989L14.7863 9.96218L14.775 9.9543L14.7694 9.95037L14.76 9.94446L14.745 9.93463H14.7413L14.7356 9.93069L14.7169 9.92282L14.7094 9.91888L14.6906 9.91298H14.6869L14.6813 9.91101L14.6644 9.90708H14.6531L14.6475 9.90511H14.64L14.6363 9.90314H13.56C13.4827 9.90314 13.4086 9.93521 13.3538 9.99236C13.299 10.0495 13.268 10.1271 13.2675 10.2082V17.0681C13.2675 17.2373 13.3988 17.3731 13.56 17.3731H14.61C14.7731 17.3731 14.9044 17.2353 14.9044 17.0681V12.9946L17.9044 17.2452C17.9254 17.2735 17.95 17.2986 17.9775 17.32L17.9794 17.3219L17.9981 17.3337L18.0056 17.3377L18.0206 17.3455L18.0338 17.3514L18.0431 17.3554L18.0619 17.3613H18.0675C18.0921 17.3679 18.1172 17.3718 18.1425 17.3731H19.1925C19.3556 17.3731 19.4869 17.2353 19.4869 17.0681V10.2062C19.4869 10.1248 19.4561 10.0467 19.4012 9.98912C19.3464 9.93155 19.272 9.8992 19.1944 9.8992H18.1425ZM25.2956 11.3102V10.2082C25.2959 10.1678 25.2885 10.1279 25.2741 10.0905C25.2596 10.0532 25.2383 10.0192 25.2113 9.99051C25.1843 9.96182 25.1522 9.93899 25.1168 9.92332C25.0814 9.90766 25.0434 9.89946 25.005 9.8992H20.8013C20.7258 9.9003 20.6535 9.93122 20.5988 9.98579H20.5969L20.595 9.98973L20.5913 9.99563C20.5397 10.0526 20.5103 10.1277 20.5087 10.2062V17.0661C20.5087 17.1468 20.5406 17.2235 20.5913 17.2767L20.595 17.2826L20.5988 17.2865C20.6538 17.3404 20.726 17.3706 20.8013 17.3711H25.005C25.1663 17.3711 25.2956 17.2334 25.2956 17.0641V15.9621C25.2959 15.9218 25.2885 15.8819 25.2741 15.8445C25.2596 15.8072 25.2383 15.7732 25.2113 15.7445C25.1843 15.7158 25.1522 15.693 25.1168 15.6773C25.0814 15.6616 25.0434 15.6534 25.005 15.6532H22.1438V14.4941H25.0031C25.1644 14.4941 25.2938 14.3564 25.2938 14.1871V13.0851C25.294 13.0448 25.2867 13.0049 25.2722 12.9675C25.2577 12.9302 25.2364 12.8962 25.2094 12.8675C25.1824 12.8388 25.1503 12.816 25.1149 12.8003C25.0795 12.7846 25.0415 12.7765 25.0031 12.7762H22.1438V11.6171H25.0031C25.1644 11.6171 25.2938 11.4794 25.2938 11.3102H25.2956Z" fill="#1C2541"/>
</svg>
