<svg width="121" height="79" viewBox="0 0 121 79" fill="none" xmlns="http://www.w3.org/2000/svg">
<path d="M8.96387 29.0576H27.5724V41.5933C27.5724 43.3222 28.2592 44.9802 29.4817 46.2027C30.7042 47.4251 32.3622 48.1119 34.091 48.1119H47.1282C48.857 48.1119 50.515 47.4251 51.7375 46.2027C52.9599 44.9802 53.6467 43.3222 53.6467 41.5933V29.0576H112.035C112.035 42.6519 112.035 53.739 104.012 61.7062C103.478 62.2218 102.855 62.637 102.174 62.9319C98.6129 64.402 94.8611 65.3587 91.031 65.7733C70.6811 68.3085 50.0952 68.3085 29.7453 65.7733C25.9081 65.3314 22.1549 64.3368 18.6024 62.8205C17.9646 62.5311 17.3806 62.1355 16.8753 61.6505C9.0753 53.6276 8.96387 42.6519 8.96387 29.0576Z" stroke="#466362" stroke-width="3" stroke-linecap="round" stroke-linejoin="round"/>
<path d="M15.9283 76.6936C15.8839 71.9551 16.7934 67.2562 18.6026 62.8765" stroke="#466362" stroke-width="3" stroke-linecap="round" stroke-linejoin="round"/>
<path d="M91.0869 65.774C94.917 65.3594 98.6688 64.4027 102.23 62.9326C104.096 67.2809 105.063 71.9621 105.071 76.694" stroke="#466362" stroke-width="3" stroke-linecap="round" stroke-linejoin="round"/>
<path d="M2 29.0576H8.96429M112.036 29.0576H119" stroke="#466362" stroke-width="3" stroke-linecap="round" stroke-linejoin="round"/>
<path d="M103.066 29.0571V9.8357C102.893 7.70112 101.923 5.70986 100.349 4.25798C98.7744 2.8061 96.7113 2 94.5697 2C92.4281 2 90.365 2.8061 88.7907 4.25798C87.2164 5.70986 86.2462 7.70112 86.0732 9.8357" stroke="#466362" stroke-width="3" stroke-linecap="round" stroke-linejoin="round"/>
<path d="M53.6466 41.5929C53.6466 43.3217 52.9598 44.9797 51.7373 46.2022C50.5148 47.4247 48.8568 48.1115 47.128 48.1115H34.0908C32.362 48.1115 30.704 47.4247 29.4815 46.2022C28.259 44.9797 27.5723 43.3217 27.5723 41.5929V26.3272C27.5723 24.5983 28.259 22.9403 29.4815 21.7178C30.704 20.4954 32.362 19.8086 34.0908 19.8086H47.128C48.8523 19.8231 50.5019 20.5146 51.7212 21.7339C52.9406 22.9532 53.632 24.6028 53.6466 26.3272V41.5929Z" stroke="#466362" stroke-width="3" stroke-linecap="round" stroke-linejoin="round"/>
</svg>
