<svg width="105" height="107" viewBox="0 0 105 107" fill="none" xmlns="http://www.w3.org/2000/svg">
<path d="M45.4147 14.8273C45.4212 13.401 45.1458 11.9876 44.6045 10.6681C44.0631 9.3486 43.2665 8.14903 42.2602 7.13827C41.254 6.1275 40.058 5.32546 38.741 4.77819C37.4239 4.23092 36.0117 3.9492 34.5855 3.94922H12.8294C11.4031 3.9492 9.99096 4.23092 8.6739 4.77819C7.35684 5.32546 6.16086 6.1275 5.15463 7.13827C4.1484 8.14903 3.35174 9.3486 2.8104 10.6681C2.26905 11.9876 1.99369 13.401 2.00011 14.8273V37.4126C1.99369 38.8389 2.26905 40.2523 2.8104 41.5718C3.35174 42.8913 4.1484 44.0909 5.15463 45.1016C6.16086 46.1124 7.35684 46.9144 8.6739 47.4617C9.99096 48.009 11.4031 48.2907 12.8294 48.2907H34.5855C36.0117 48.2907 37.4239 48.009 38.741 47.4617C40.058 46.9144 41.254 46.1124 42.2602 45.1016C43.2665 44.0909 44.0631 42.8913 44.6045 41.5718C45.1458 40.2523 45.4212 38.8389 45.4147 37.4126V14.8273Z" stroke="#466362" stroke-width="3" stroke-linecap="round" stroke-linejoin="round"/>
<path d="M32.7316 78.6803C32.7316 77.5159 32.2691 76.3992 31.4458 75.5759C30.6224 74.7526 29.5058 74.29 28.3414 74.29H19.317C18.1526 74.29 17.036 74.7526 16.2126 75.5759C15.3893 76.3992 14.9268 77.5159 14.9268 78.6803V101.119C14.9268 102.284 15.3893 103.4 16.2126 104.224C17.036 105.047 18.1526 105.51 19.317 105.51H28.0975C29.2619 105.51 30.3785 105.047 31.2019 104.224C32.0252 103.4 32.4877 102.284 32.4877 101.119L32.7316 78.6803Z" stroke="#466362" stroke-width="3" stroke-linecap="round" stroke-linejoin="round"/>
<path d="M15.7559 17.9004V34.3882" stroke="#466362" stroke-width="3" stroke-linecap="round" stroke-linejoin="round"/>
<path d="M31.6582 17.9004V34.3882" stroke="#466362" stroke-width="3" stroke-linecap="round" stroke-linejoin="round"/>
<path d="M23.707 74.3388V48.29" stroke="#466362" stroke-width="3" stroke-linecap="round" stroke-linejoin="round"/>
<path d="M102.488 26.5829C102.633 23.4084 102.133 20.2375 101.018 17.2617C99.9025 14.286 98.1957 11.5672 96.0004 9.26951C93.8051 6.97187 91.1669 5.14308 88.245 3.89363C85.3231 2.64418 82.1783 2 79.0005 2C75.8227 2 72.6778 2.64418 69.756 3.89363C66.8341 5.14308 64.1958 6.97187 62.0005 9.26951C59.8052 11.5672 58.0985 14.286 56.9834 17.2617C55.8683 20.2375 55.368 23.4084 55.5127 26.5829V27.5097C55.7882 33.5539 58.3831 39.2592 62.7578 43.439C67.1324 47.6188 72.95 49.9512 79.0005 49.9512C85.0509 49.9512 90.8685 47.6188 95.2432 43.439C99.6178 39.2592 102.213 33.5539 102.488 27.5097V26.5829Z" stroke="#466362" stroke-width="3" stroke-linecap="round" stroke-linejoin="round"/>
<path d="M87.8051 79.6559C87.8051 78.4915 87.3426 77.3748 86.5192 76.5515C85.6959 75.7282 84.5792 75.2656 83.4149 75.2656H74.6344C73.47 75.2656 72.3533 75.7282 71.53 76.5515C70.7067 77.3748 70.2441 78.4915 70.2441 79.6559V101.119C70.2441 102.284 70.7067 103.4 71.53 104.224C72.3533 105.047 73.47 105.51 74.6344 105.51H83.4149C84.5792 105.51 85.6959 105.047 86.5192 104.224C87.3426 103.4 87.8051 102.284 87.8051 101.119V79.6559Z" stroke="#466362" stroke-width="3" stroke-linecap="round" stroke-linejoin="round"/>
<path d="M79.0244 75.2662V50.876" stroke="#466362" stroke-width="3" stroke-linecap="round" stroke-linejoin="round"/>
</svg>
