<svg width="106" height="85" viewBox="0 0 106 85" fill="none" xmlns="http://www.w3.org/2000/svg">
<path d="M104.439 83.2196H2.00006C1.99324 80.438 2.53716 77.6827 3.60043 75.1124C4.66371 72.5421 6.22531 70.2078 8.19519 68.244C8.19519 68.244 28.1952 50.3903 38.1952 46.8293C47.9371 43.5139 58.5021 43.5139 68.244 46.8293C78.0001 50.3903 98.244 68.244 98.244 68.244C100.214 70.2078 101.775 72.5421 102.839 75.1124C103.902 77.6827 104.446 80.438 104.439 83.2196Z" stroke="#466362" stroke-width="3" stroke-linecap="round" stroke-linejoin="round"/>
<path d="M39.8047 15.4146C39.8047 12.7615 40.5914 10.1679 42.0655 7.96187C43.5395 5.75584 45.6346 4.03646 48.0858 3.02113C50.537 2.00581 53.2342 1.74016 55.8364 2.25776C58.4386 2.77537 60.8288 4.05299 62.7049 5.92906C64.581 7.80513 65.8586 10.1954 66.3762 12.7976C66.8938 15.3998 66.6281 18.097 65.6128 20.5482C64.5975 22.9994 62.8781 25.0945 60.6721 26.5685C58.4661 28.0425 55.8725 28.8293 53.2193 28.8293" stroke="#466362" stroke-width="3" stroke-linecap="round" stroke-linejoin="round"/>
<path d="M53.2197 28.8291V44.3413" stroke="#466362" stroke-width="3" stroke-linecap="round" stroke-linejoin="round"/>
</svg>
