<svg width="106" height="93" viewBox="0 0 106 93" fill="none" xmlns="http://www.w3.org/2000/svg">
<path d="M19.0629 34.5009C17.321 35.9233 15.1411 36.7003 12.8922 36.7003C10.6433 36.7003 8.46341 35.9233 6.72147 34.5009L5.50196 33.5253C4.4057 32.6096 3.52387 31.4644 2.91875 30.1706C2.31364 28.8768 2 27.4658 2 26.0375C2 24.6091 2.31364 23.1982 2.91875 21.9043C3.52387 20.6105 4.4057 19.4653 5.50196 18.5497C18.9386 7.55148 35.8485 1.69007 53.2093 2.01308C70.6342 1.68265 87.5985 7.62016 101.014 18.7448C102.094 19.6607 102.961 20.8004 103.555 22.085C104.15 23.3696 104.458 24.7682 104.458 26.1838C104.458 27.5994 104.15 28.998 103.555 30.2826C102.961 31.5672 102.094 32.707 101.014 33.6228C100.624 34.0131 100.185 34.3058 99.7946 34.6472C98.0527 36.0697 95.8728 36.8466 93.6239 36.8466C91.375 36.8466 89.1951 36.0697 87.4532 34.6472C77.8033 26.8642 65.7001 22.7664 53.3068 23.0863C40.8986 22.7018 28.7589 26.7483 19.0629 34.5009Z" stroke="#466362" stroke-width="3" stroke-linecap="round" stroke-linejoin="round"/>
<path d="M42.2825 58.9398C40.6463 59.8959 38.7586 60.3332 36.8686 60.1938C34.9787 60.0545 33.1755 59.3451 31.6972 58.1593C30.5118 57.1619 29.5811 55.8965 28.9819 54.4679C28.3827 53.0393 28.1324 51.4886 28.2516 49.944C28.3708 48.3994 28.856 46.9054 29.6673 45.5857C30.4785 44.2659 31.5924 43.1583 32.9167 42.3545C39.123 38.9127 46.1128 37.1317 53.2094 37.1837C60.3227 37.121 67.3309 38.9025 73.5508 42.3545C74.872 43.1625 75.9818 44.2734 76.7885 45.5953C77.5952 46.9172 78.0756 48.4122 78.19 49.9566C78.3044 51.501 78.0495 53.0505 77.4463 54.4768C76.8432 55.9032 75.9092 57.1655 74.7216 58.1593L74.1362 58.6471C72.785 59.7724 71.1095 60.4362 69.3543 60.5415C67.599 60.6468 65.8561 60.1882 64.3801 59.2325C60.9836 57.2796 57.1271 56.2692 53.2094 56.3057C49.4026 56.2425 45.6424 57.149 42.2825 58.9398Z" stroke="#466362" stroke-width="3" stroke-linecap="round" stroke-linejoin="round"/>
<path d="M53.209 91.0864C58.7318 91.0864 63.209 86.6093 63.209 81.0864C63.209 75.5636 58.7318 71.0864 53.209 71.0864C47.6861 71.0864 43.209 75.5636 43.209 81.0864C43.209 86.6093 47.6861 91.0864 53.209 91.0864Z" stroke="#466362" stroke-width="3" stroke-linecap="round" stroke-linejoin="round"/>
</svg>
